<svg xmlns="http://www.w3.org/2000/svg" viewBox="0 0 960 540" role="img" aria-labelledby="title desc">
  <title id="title">Illustration Ludani</title>
  <desc id="desc">Éditeur de jeu avec grille, scène 3D et panneaux d'outils</desc>
  <defs>
    <linearGradient id="bg" x1="0" x2="1" y1="0" y2="1">
      <stop stop-color="#111827"/>
      <stop offset="1" stop-color="#312E81"/>
    </linearGradient>
    <linearGradient id="cube" x1="0" x2="1" y1="0" y2="1">
      <stop stop-color="#FBBF24"/>
      <stop offset="1" stop-color="#F472B6"/>
    </linearGradient>
  </defs>
  <rect width="960" height="540" rx="36" fill="url(#bg)"/>
  <rect x="76" y="72" width="808" height="396" rx="24" fill="#020617" stroke="#334155"/>
  <rect x="104" y="104" width="166" height="332" rx="16" fill="#0F172A" stroke="#1E293B"/>
  <rect x="304" y="104" width="424" height="332" rx="16" fill="#111827" stroke="#1E293B"/>
  <g stroke="#334155" opacity=".5">
    <path d="M304 358h424M304 314h424M304 270h424M304 226h424M304 182h424M304 138h424"/>
    <path d="M348 104v332M392 104v332M436 104v332M480 104v332M524 104v332M568 104v332M612 104v332M656 104v332M700 104v332"/>
  </g>
  <path d="M514 169l94 54v108l-94 54-94-54V223l94-54Z" fill="url(#cube)" opacity=".95"/>
  <path d="M514 169v108l94-54" fill="#FDBA74" opacity=".7"/>
  <path d="M514 277v108l-94-54V223l94 54Z" fill="#A78BFA" opacity=".65"/>
  <rect x="758" y="104" width="98" height="332" rx="16" fill="#0F172A" stroke="#1E293B"/>
  <g fill="#CBD5E1" opacity=".8">
    <rect x="132" y="136" width="90" height="10" rx="5"/>
    <rect x="132" y="170" width="108" height="10" rx="5"/>
    <rect x="132" y="204" width="74" height="10" rx="5"/>
    <rect x="782" y="136" width="48" height="48" rx="12"/>
    <rect x="782" y="210" width="48" height="48" rx="12"/>
    <rect x="782" y="284" width="48" height="48" rx="12"/>
  </g>
</svg>
